# xmcd
#
# Track frame offsets:
#	150
#	22352
#	44599
#	67756
#	89625
#	115392
#	133707
#	161215
#	179950
#	197486
#	215477
#	250972
#	270181
#	302448
#	321746
#	343925
#
# Disc length: 4768 seconds
#
# Revision: 3
# Processed by: cddbd v1.5.2PL0 Copyright (c) Steve Scherf et al.
# Submitted via: EZCDAudioConverter 6.0.0.1
#
DISCID=01129e10
DTITLE=Various Artist - Akella Present - Black Pure Blues - vol.8  CD1
DYEAR=2010
DGENRE=Blues
TTITLE0=OTIS RUSH - I Got the Blues
TTITLE1=JAMES BLOOD ULMER - Double Trouble
TTITLE2=ROBERT CRAY - I Shiver
TTITLE3=JUNIOR WELLS - Sweet Sixteen
TTITLE4=MIGHTY SAM McCLAIN - New Man In Town
TTITLE5=Mighty Mo Rodgers - Dna
TTITLE6=SOLOMON BURKE - Flesh and Blood
TTITLE7=LITTLE MILTON - Lady
TTITLE8=JOHN LEE HOOKER - We'll Meet Again
TTITLE9=JOHNNY COPELAND - Lion's Den
TTITLE10=SMOKEHOUSE - Go Down Moses
TTITLE11=LIL' ED and BLUES IMPERIALS - Computer Girl
TTITLE12=CAREY BELL - Teardrops
TTITLE13=PINETOP PERKINS - Blues Oh Blues
TTITLE14=RONDO'S BLUES DELUXE - I've Got to Leave This Woman
TTITLE15=KENNY NEAL - Strike While the Iron Is Hot
EXTD=
EXTT0=
EXTT1=
EXTT2=
EXTT3=
EXTT4=
EXTT5=
EXTT6=
EXTT7=
EXTT8=
EXTT9=
EXTT10=
EXTT11=
EXTT12=
EXTT13=
EXTT14=
EXTT15=
PLAYORDER=
